<mxfile host="app.diagrams.net" modified="2023-11-16T02:24:12.092Z" agent="Mozilla/5.0 (Windows NT 10.0; Win64; x64) AppleWebKit/537.36 (KHTML, like Gecko) Chrome/118.0.0.0 Safari/537.36" version="22.1.2" etag="khNiS4RFjeMisjt6qZhj" type="github">
  <diagram name="第 1 页" id="zyq06cU_gBD0_MGWGmN6">
    <mxGraphModel>
      <root>
        <mxCell id="0" />
        <mxCell id="1" parent="0" />
      </root>
    </mxGraphModel>
  </diagram>
</mxfile>
